<?xml version="1.0" encoding="utf-8"?>
<!-- Generator: Adobe Illustrator 24.0.2, SVG Export Plug-In . SVG Version: 6.00 Build 0)  -->
<svg version="1.1" id="레이어_1" xmlns="http://www.w3.org/2000/svg" xmlns:xlink="http://www.w3.org/1999/xlink" x="0px"
	 y="0px" viewBox="0 0 400 400" style="enable-background:new 0 0 400 400;" xml:space="preserve">
<style type="text/css">
	.st0{fill:#00BAFF;}
</style>
<g>
	<g>
		<g>
			<g>
				<path class="st0" d="M279.2,0c-14.6,0-29,3.7-41.8,10.8c-24.1,13.5-53.5,13.5-77.5,0C147.1,3.7,132.7,0,118.1,0
					C70.6,0.1,32.1,38.6,32,86.1V100c0.1,44.2,14.2,87.2,40.4,122.8l29.3,152.7c3.2,16.4,19,27.2,35.5,24
					c12.7-2.4,22.4-12.7,24.3-25.5l20.9-146.6c1.3-9,9.6-15.2,18.6-13.9c7.2,1,12.9,6.7,13.9,13.9l21,146.6
					c2.4,16.6,17.7,28.1,34.3,25.7c12.8-1.8,23-11.6,25.5-24.3l29.3-152.7c26.2-35.6,40.3-78.6,40.4-122.8V86.1
					C365.3,38.5,326.8,0,279.2,0z M352,100c-0.1,41.8-13.6,82.5-38.7,116c-0.6,0.8-1,1.7-1.2,2.7l-29.6,154.2
					c-1.8,9.2-10.7,15.2-19.9,13.4c-7.1-1.4-12.5-7.1-13.6-14.2l-20.9-146.6c-2.3-16.3-17.4-27.5-33.6-25.2
					c-13.1,1.9-23.3,12.1-25.2,25.2l-20.9,146.6c-1.3,9.3-9.9,15.7-19.2,14.4c-7.2-1-12.9-6.5-14.2-13.6L85.2,218.7
					c-0.2-1-0.6-1.9-1.2-2.7c-25-33.5-38.6-74.2-38.7-116V86.1c0-40.2,32.6-72.8,72.8-72.7c12.4,0,24.5,3.2,35.3,9.2
					c28.1,15.7,62.4,15.7,90.5,0c19-10.6,41.7-12.1,62-4l12.1,6.2c21.1,13.3,34,36.5,34,61.4L352,100L352,100z"/>
			</g>
		</g>
		<g>
			<g>
				<path class="st0" d="M113.3,46.7l-1.3-6.5c-13.3,2.7-38.7,17.2-38.7,53.2h13.3c0-33.8,26.9-39.9,28-40.1L113.3,46.7z"/>
			</g>
		</g>
		<g>
			<g>
				<rect x="126.7" y="40" class="st0" width="13.3" height="13.3"/>
			</g>
		</g>
	</g>
	<path class="st0" d="M279,110.5c-2-2.7-5.7-3.3-8.4-1.3c-11.4,8.3-23.2,14.4-35.6,18.3c-0.5,0.1-1,0.2-1.4,0.4
		c-19.3,5.8-39.8,6.1-61.2,1c-27-6.5-45.5-19.6-45.7-19.8c-2.7-1.9-6.4-1.3-8.4,1.3c-1.9,2.7-1.3,6.4,1.3,8.4
		c0.7,0.5,13.5,9.6,33.7,16.9c-14.9,16.7-43,65.6-28.2,189c0.4,3,3,5.3,6,5.3c0.2,0,0.5,0,0.7,0c3.3-0.4,5.6-3.4,5.2-6.7
		c-9.5-79.6-0.5-125.8,8.8-150.5c7.7-20.6,16.8-30,20.5-33.1c0.9,0.2,1.9,0.5,2.8,0.7c9.4,2.3,20.3,3.9,32.4,3.9
		c10.4,0,21.6-1.3,33.2-4.4c3.5,3.3,11.4,12.2,18.3,31.2c9.1,24.7,17.9,71.2,8.8,152.2c-0.4,3.3,2,6.3,5.3,6.6c0.2,0,0.5,0,0.7,0
		c3,0,5.6-2.3,6-5.3c13.9-123.4-12.5-172.2-26.6-188.9c10-3.9,20.3-9.4,30.5-16.9C280.4,116.9,281,113.1,279,110.5z"/>
</g>
</svg>
