<?xml version="1.0" encoding="utf-8"?>
<!-- Generator: Adobe Illustrator 24.0.2, SVG Export Plug-In . SVG Version: 6.00 Build 0)  -->
<svg version="1.1" id="레이어_1" xmlns="http://www.w3.org/2000/svg" xmlns:xlink="http://www.w3.org/1999/xlink" x="0px"
	 y="0px" viewBox="0 0 400 400" style="enable-background:new 0 0 400 400;" xml:space="preserve">
<style type="text/css">
	.st0{fill:#00BAFF;}
</style>
<g>
	<g>
		<g>
			<path class="st0" d="M279.2,0c-14.6,0-29,3.7-41.8,10.8c-24.1,13.5-53.5,13.5-77.5,0C147.1,3.7,132.7,0,118.1,0
				C70.6,0.1,32.1,38.6,32,86.1V100c0.1,44.2,14.2,87.2,40.4,122.8l29.3,152.7c3.2,16.4,19,27.2,35.5,24
				c12.7-2.4,22.4-12.7,24.3-25.5l20.9-146.6c1.3-9,9.6-15.2,18.6-13.9c7.2,1,12.9,6.7,13.9,13.9l21,146.6
				c2.4,16.6,17.7,28.1,34.3,25.7c12.8-1.8,23-11.6,25.5-24.3L325,222.7c26.2-35.6,40.3-78.6,40.4-122.8V86.1
				C365.3,38.5,326.8,0,279.2,0z M352,100c-0.1,41.8-13.6,82.5-38.7,116c-0.6,0.8-1,1.7-1.2,2.7l-29.6,154.2
				c-1.8,9.2-10.7,15.2-19.9,13.4c-7.1-1.4-12.5-7.1-13.6-14.2l-20.9-146.6c-2.3-16.3-17.4-27.5-33.6-25.2
				c-13.1,1.9-23.3,12.1-25.2,25.2l-20.9,146.6c-1.3,9.3-9.9,15.7-19.2,14.4c-7.2-1-12.9-6.5-14.2-13.6L85.2,218.7
				c-0.2-1-0.6-1.9-1.2-2.7c-25-33.5-38.6-74.2-38.7-116V86.1c0-40.2,32.6-72.8,72.8-72.7c12.4,0,24.5,3.2,35.3,9.2
				c28.1,15.7,62.4,15.7,90.5,0c19-10.6,41.7-12.1,62-4l-52.4,64c-2.3,2.8-1.9,7,0.9,9.4c1.2,1,2.7,1.5,4.2,1.5h37.2l-55.3,55.3
				l9.4,9.4l66.7-66.7c2.6-2.6,2.6-6.8,0-9.4c-1.2-1.2-2.9-2-4.7-2h-39.3L318,24.7c21.1,13.3,34,36.5,34,61.4V100L352,100z"/>
		</g>
	</g>
	<g>
		<g>
			<path class="st0" d="M113.3,46.7l-1.3-6.5c-13.3,2.7-38.7,17.2-38.7,53.2h13.3c0-33.8,26.9-39.9,28-40.1L113.3,46.7z"/>
		</g>
	</g>
	<g>
		<g>
			<rect x="126.7" y="40" class="st0" width="13.3" height="13.3"/>
		</g>
	</g>
</g>
</svg>
